<?xml version="1.0" encoding="iso-8859-1"?>
<!-- Generator: Adobe Illustrator 16.0.0, SVG Export Plug-In . SVG Version: 6.00 Build 0)  -->
<!DOCTYPE svg PUBLIC "-//W3C//DTD SVG 1.1//EN" "http://www.w3.org/Graphics/SVG/1.1/DTD/svg11.dtd">
<svg version="1.1" id="Capa_1" xmlns="http://www.w3.org/2000/svg" xmlns:xlink="http://www.w3.org/1999/xlink" x="0px" y="0px"
	 width="333.355px" height="333.355px" viewBox="0 0 333.355 333.355" style="enable-background:new 0 0 333.355 333.355;"
	 xml:space="preserve">
<g>
	<g>
		<path d="M228.34,230.682c34.104-21.838,54.438-75.065,54.438-114.582c0-64.017-52.08-116.1-116.1-116.1
			c-64.017,0-116.1,52.083-116.1,116.1c0,38.201,19.05,90.234,51.021,112.356c0.598,2.452,1.413,8.247,1.975,12.266
			c2.009,14.312,2.607,17.767,5.874,19.617c10.573,5.991,38.536,8.137,61.175,8.137c11.354,0,38.896-0.585,49.401-6.027
			c3.46-1.793,4.093-5.252,6.233-19.606C226.858,238.865,227.707,233.139,228.34,230.682z M215.583,241.244
			c-0.59,3.955-1.434,9.598-2.093,12.276c-5.743,2.062-19.581,3.95-39.957,4.118c-0.021-1.477-0.032-2.953-0.042-4.43
			c0.01-2.62,0.01-5.23-0.017-7.836c0.132-29.731,3.091-58.535,25.107-81.533c6.012-6.285-3.518-15.841-9.545-9.544
			c-11.122,11.607-18.004,24.474-22.294,38.154c-4.29-13.68-11.174-26.547-22.293-38.154c-6.03-6.296-15.562,3.259-9.545,9.544
			c22.014,22.998,24.975,51.802,25.104,81.533c-0.029,2.605-0.029,5.216-0.01,7.836c-0.011,1.43-0.029,2.858-0.045,4.293
			c-19.581-0.611-36.595-2.848-43.68-5.832c-0.633-2.68-1.442-8.433-2.004-12.456c-1.917-13.669-2.484-16.97-5.411-18.896
			C79.526,201.013,61.377,151.189,61.377,116.1c0-58.061,47.24-105.3,105.3-105.3s105.3,47.239,105.3,105.3
			c0,36.266-19.364,87.191-50.636,106.218C218.23,224.205,217.63,227.518,215.583,241.244z"/>
		<path d="M222.333,276.766c-1.371-2.657-4.641-3.686-7.277-2.31c-14.201,7.346-86.352,5.985-100.276-1.914
			c-2.587-1.461-5.888-0.56-7.362,2.035c-1.468,2.59-0.562,5.886,2.036,7.362c9.247,5.252,36.376,8.058,61.854,8.058
			c21.03,0,40.933-1.909,48.716-5.959C222.671,282.678,223.704,279.413,222.333,276.766z"/>
		<path d="M219.602,298.255c-1.429-2.61-4.704-3.575-7.33-2.146c-13.405,7.314-81.569,5.965-94.713-1.903
			c-2.547-1.519-5.875-0.696-7.401,1.867c-1.529,2.558-0.699,5.874,1.867,7.403c9.058,5.416,34.62,8.301,58.72,8.301
			c20.019,0,39.039-1.993,46.707-6.191C220.065,304.161,221.025,300.881,219.602,298.255z"/>
		<path d="M210.157,317.756c-12.799,7.299-77.92,5.928-90.477-1.898c-2.542-1.576-5.864-0.807-7.441,1.72
			c-1.577,2.531-0.804,5.864,1.722,7.446c8.722,5.432,33.341,8.332,56.544,8.332c19.28,0,37.6-2.004,44.998-6.213
			c2.59-1.477,3.497-4.772,2.021-7.366C216.048,317.187,212.746,316.279,210.157,317.756z"/>
	</g>
</g>
<g>
</g>
<g>
</g>
<g>
</g>
<g>
</g>
<g>
</g>
<g>
</g>
<g>
</g>
<g>
</g>
<g>
</g>
<g>
</g>
<g>
</g>
<g>
</g>
<g>
</g>
<g>
</g>
<g>
</g>
</svg>
